<svg width="109" height="1020" viewBox="0 0 109 1020" fill="none" xmlns="http://www.w3.org/2000/svg">
<path fill-rule="evenodd" clip-rule="evenodd" d="M108.389 104.374V105.779H1.71875V104.374H21.3685V98.7545H7.33296V84.7046H1.71875V83.2996H7.33296V55.1997H36.8076V69.2497H50.8431V98.7545H22.772V104.374H85.9319V98.7545H57.8609V69.2497H71.8964V55.1997H101.371V83.2996H106.985V20.0749H101.371V48.1748H71.8964V34.1248H57.8609V4.61997H85.9319V-1H87.3355V4.61997H101.371V18.6699H106.985V-1H108.389V104.374ZM106.985 104.374V84.7046H101.371V98.7545H87.3355V104.374H106.985ZM59.2644 20.0749V32.7198H71.8964V20.0749H59.2644ZM73.2999 32.7198H87.3355V46.7698H99.9674V20.0749H85.9319V6.02497H59.2644V18.6699H73.2999V32.7198ZM73.2999 34.1248V46.7698H85.9319V34.1248H73.2999ZM87.3355 18.6699H99.9674V6.02497H87.3355V18.6699ZM49.4395 83.2996V70.6547H36.8076V83.2996H49.4395ZM35.404 70.6547H21.3685V56.6047H8.73651V83.2996H22.772V97.3495H49.4395V84.7046H35.404V70.6547ZM35.404 69.2497V56.6047H22.772V69.2497H35.404ZM21.3685 84.7046H8.73651V97.3495H21.3685V84.7046ZM59.2644 84.7046V97.3495H85.9319V83.2996H99.9674V56.6047H87.3355V70.6547H73.2999V84.7046H59.2644ZM71.8964 70.6547H59.2644V83.2996H71.8964V70.6547ZM73.2999 69.2497H85.9319V56.6047H73.2999V69.2497ZM87.3355 97.3495V84.7046H99.9674V97.3495H87.3355ZM22.772 -1H21.3685V4.61997H7.33296V18.6699H1.71875V20.0749H7.33296V48.1748H36.8076V34.1248H50.8431V4.61997H22.772V-1ZM36.8076 32.7198H49.4395V20.0749H36.8076V32.7198ZM49.4395 18.6699H35.404V32.7198H21.3685V46.7698H8.73651V20.0749H22.772V6.02497H49.4395V18.6699ZM22.772 34.1248H35.404V46.7698H22.772V34.1248ZM21.3685 6.02497H8.73651V18.6699H21.3685V6.02497Z" fill="#D4AA54"/>
<path fill-rule="evenodd" clip-rule="evenodd" d="M108.443 211.32V212.725H1.77344L1.77344 211.32H21.4232V205.7H7.38765L7.38765 191.65H1.77344L1.77344 190.245H7.38765L7.38765 162.145H36.8623V176.195H50.8978L50.8978 205.7H22.8267V211.32H85.9866V205.7H57.9155L57.9155 176.195H71.9511V162.145L101.426 162.145V190.245H107.04L107.04 127.02H101.426L101.426 155.12L71.9511 155.12L71.9511 141.07H57.9155L57.9155 111.565H85.9866V105.945H87.3902V111.565H101.426V125.615H107.04V105.945H108.443L108.443 211.32ZM107.04 211.32V191.65H101.426V205.7H87.3902V211.32H107.04ZM59.3191 127.02V139.665H71.9511V127.02H59.3191ZM73.3546 139.665H87.3902L87.3902 153.715L100.022 153.715L100.022 127.02L85.9866 127.02V112.97H59.3191L59.3191 125.615H73.3546V139.665ZM73.3546 141.07L73.3546 153.715H85.9866L85.9866 141.07H73.3546ZM87.3902 125.615L100.022 125.615V112.97H87.3902V125.615ZM49.4942 190.245V177.6H36.8623V190.245H49.4942ZM35.4587 177.6H21.4232L21.4232 163.55H8.7912L8.7912 190.245H22.8267L22.8267 204.295H49.4942L49.4942 191.65H35.4587V177.6ZM35.4587 176.195V163.55H22.8267L22.8267 176.195H35.4587ZM21.4232 191.65H8.7912L8.7912 204.295H21.4232L21.4232 191.65ZM59.3191 191.65L59.3191 204.295H85.9866V190.245H100.022V163.55L87.3902 163.55V177.6H73.3546V191.65H59.3191ZM71.9511 177.6H59.3191V190.245H71.9511V177.6ZM73.3546 176.195H85.9866V163.55H73.3546V176.195ZM87.3902 204.295V191.65H100.022V204.295H87.3902ZM22.8267 105.945H21.4232V111.565H7.38765L7.38765 125.615H1.77344L1.77344 127.02H7.38765L7.38765 155.12H36.8623V141.07H50.8978L50.8978 111.565L22.8267 111.565V105.945ZM36.8623 139.665H49.4942V127.02L36.8623 127.02V139.665ZM49.4942 125.615L35.4587 125.615V139.665H21.4232L21.4232 153.715H8.7912L8.7912 127.02H22.8267L22.8267 112.97L49.4942 112.97L49.4942 125.615ZM22.8267 141.07H35.4587V153.715H22.8267L22.8267 141.07ZM21.4232 112.97H8.7912L8.7912 125.615H21.4232L21.4232 112.97Z" fill="#D4AA54"/>
<path fill-rule="evenodd" clip-rule="evenodd" d="M108.389 318.374V319.779H1.71875L1.71875 318.374H21.3685V312.755H7.33296L7.33296 298.705H1.71875L1.71875 297.3H7.33296L7.33296 269.2H36.8076V283.25H50.8431L50.8431 312.755H22.772V318.374H85.9319V312.755H57.8609L57.8609 283.25H71.8964V269.2H101.371V297.3H106.985L106.985 234.075H101.371L101.371 262.175H71.8964L71.8964 248.125H57.8609L57.8609 218.62L85.9319 218.62V213H87.3355V218.62H101.371V232.67H106.985V213H108.389L108.389 318.374ZM106.985 318.374V298.705H101.371V312.755H87.3355V318.374H106.985ZM59.2644 234.075V246.72H71.8964V234.075H59.2644ZM73.2999 246.72H87.3355L87.3355 260.77H99.9674L99.9674 234.075H85.9319V220.025L59.2644 220.025L59.2644 232.67H73.2999V246.72ZM73.2999 248.125L73.2999 260.77H85.9319L85.9319 248.125H73.2999ZM87.3355 232.67H99.9674V220.025H87.3355V232.67ZM49.4395 297.3V284.655H36.8076V297.3H49.4395ZM35.404 284.655H21.3685L21.3685 270.605H8.73651L8.73651 297.3H22.772L22.772 311.35H49.4395L49.4395 298.705H35.404V284.655ZM35.404 283.25V270.605H22.772L22.772 283.25H35.404ZM21.3685 298.705H8.73651L8.73651 311.35H21.3685L21.3685 298.705ZM59.2644 298.705L59.2644 311.35H85.9319V297.3H99.9674V270.605H87.3355V284.655H73.2999V298.705H59.2644ZM71.8964 284.655H59.2644V297.3H71.8964V284.655ZM73.2999 283.25H85.9319V270.605H73.2999V283.25ZM87.3355 311.35V298.705H99.9674V311.35H87.3355ZM22.772 213H21.3685V218.62H7.33296L7.33296 232.67H1.71875L1.71875 234.075H7.33296L7.33296 262.175H36.8076V248.125H50.8431L50.8431 218.62H22.772V213ZM36.8076 246.72H49.4395V234.075H36.8076V246.72ZM49.4395 232.67H35.404V246.72H21.3685L21.3685 260.77H8.73651L8.73651 234.075H22.772L22.772 220.025H49.4395L49.4395 232.67ZM22.772 248.125H35.404V260.77H22.772L22.772 248.125ZM21.3685 220.025H8.73651L8.73651 232.67H21.3685L21.3685 220.025Z" fill="#D4AA54"/>
<path fill-rule="evenodd" clip-rule="evenodd" d="M108.334 425.429V426.834H1.66406L1.66406 425.429H21.3138V419.809H7.27827L7.27827 405.759H1.66406L1.66406 404.354H7.27827L7.27827 376.254H36.7529V390.304H50.7884L50.7884 419.809H22.7174V425.429H85.8772V419.809H57.8062L57.8062 390.304H71.8417V376.254H101.316V404.354H106.931L106.931 341.13H101.316L101.316 369.229H71.8417L71.8417 355.18H57.8062L57.8062 325.675H85.8772V320.055H87.2808V325.675H101.316V339.725H106.931V320.055H108.334L108.334 425.429ZM106.931 425.429V405.759H101.316V419.809H87.2808V425.429H106.931ZM59.2097 341.13V353.775H71.8417V341.13H59.2097ZM73.2452 353.775H87.2808L87.2808 367.824H99.9128L99.9128 341.13H85.8772V327.08H59.2097L59.2097 339.725H73.2452V353.775ZM73.2452 355.18L73.2452 367.824H85.8772L85.8772 355.18H73.2452ZM87.2808 339.725H99.9128V327.08H87.2808V339.725ZM49.3849 404.354V391.709H36.7529V404.354H49.3849ZM35.3493 391.709H21.3138L21.3138 377.659H8.68183L8.68183 404.354H22.7174L22.7174 418.404H49.3849L49.3849 405.759H35.3493V391.709ZM35.3493 390.304V377.659H22.7174L22.7174 390.304H35.3493ZM21.3138 405.759H8.68183L8.68183 418.404H21.3138L21.3138 405.759ZM59.2097 405.759L59.2097 418.404H85.8772V404.354H99.9128V377.659H87.2808V391.709H73.2452V405.759H59.2097ZM71.8417 391.709H59.2097V404.354H71.8417V391.709ZM73.2452 390.304H85.8772V377.659H73.2452V390.304ZM87.2808 418.404V405.759H99.9128V418.404H87.2808ZM22.7174 320.055H21.3138V325.675H7.27827L7.27827 339.725H1.66406L1.66406 341.13H7.27827L7.27827 369.229H36.7529V355.18H50.7884L50.7884 325.675H22.7174V320.055ZM36.7529 353.775H49.3849V341.13H36.7529V353.775ZM49.3849 339.725H35.3493V353.775H21.3138L21.3138 367.824H8.68183L8.68183 341.13H22.7174L22.7174 327.08H49.3849L49.3849 339.725ZM22.7174 355.18H35.3493V367.824H22.7174L22.7174 355.18ZM21.3138 327.08H8.68183L8.68183 339.725H21.3138L21.3138 327.08Z" fill="#D4AA54"/>
<path fill-rule="evenodd" clip-rule="evenodd" d="M108.279 532.484V533.889H1.60938L1.60938 532.484H21.2591V526.864H7.22359L7.22359 512.814H1.60938L1.60938 511.409H7.22359L7.22359 483.309H36.6982V497.359H50.7337L50.7337 526.864H22.6627V532.484H85.8225V526.864H57.7515L57.7515 497.359H71.787V483.309H101.262V511.409H106.876L106.876 448.184H101.262L101.262 476.284H71.787L71.787 462.234H57.7515L57.7515 432.729H85.8225V427.109H87.2261V432.729H101.262V446.779H106.876V427.109H108.279L108.279 532.484ZM106.876 532.484V512.814H101.262V526.864H87.2261V532.484H106.876ZM59.155 448.184V460.829H71.787V448.184H59.155ZM73.1906 460.829H87.2261L87.2261 474.879H99.8581L99.8581 448.184H85.8225V434.134H59.155L59.155 446.779H73.1906V460.829ZM73.1906 462.234L73.1906 474.879H85.8225L85.8225 462.234H73.1906ZM87.2261 446.779H99.8581V434.134H87.2261V446.779ZM49.3302 511.409V498.764H36.6982V511.409H49.3302ZM35.2946 498.764H21.2591L21.2591 484.714H8.62714L8.62714 511.409H22.6627L22.6627 525.459H49.3302L49.3302 512.814H35.2946V498.764ZM35.2946 497.359V484.714H22.6627L22.6627 497.359H35.2946ZM21.2591 512.814H8.62714L8.62714 525.459H21.2591L21.2591 512.814ZM59.155 512.814L59.155 525.459H85.8225V511.409H99.8581V484.714H87.2261V498.764H73.1906V512.814H59.155ZM71.787 498.764H59.155V511.409H71.787V498.764ZM73.1906 497.359H85.8225V484.714H73.1906V497.359ZM87.2261 525.459V512.814H99.8581V525.459H87.2261ZM22.6627 427.109H21.2591V432.729H7.22359L7.22359 446.779H1.60938L1.60938 448.184H7.22359L7.22359 476.284H36.6982V462.234H50.7337L50.7337 432.729H22.6627V427.109ZM36.6982 460.829H49.3302V448.184H36.6982V460.829ZM49.3302 446.779H35.2946V460.829H21.2591L21.2591 474.879H8.62714L8.62714 448.184H22.6627L22.6627 434.134H49.3302L49.3302 446.779ZM22.6627 462.234H35.2946V474.879H22.6627L22.6627 462.234ZM21.2591 434.134H8.62714L8.62714 446.779H21.2591L21.2591 434.134Z" fill="#D4AA54"/>
<path fill-rule="evenodd" clip-rule="evenodd" d="M108.225 639.539V640.944H1.55469L1.55469 639.539H21.2044V633.919H7.1689L7.1689 619.869H1.55469L1.55469 618.464H7.1689L7.1689 590.364H36.6435V604.414H50.679L50.679 633.919H22.608V639.539H85.7678V633.919H57.6968L57.6968 604.414H71.7323V590.364H101.207V618.464H106.821L106.821 555.239H101.207L101.207 583.339H71.7323L71.7323 569.289H57.6968L57.6968 539.784H85.7678V534.164H87.1714V539.784H101.207V553.834H106.821V534.164H108.225L108.225 639.539ZM106.821 639.539V619.869H101.207V633.919H87.1714V639.539H106.821ZM59.1003 555.239V567.884H71.7323V555.239H59.1003ZM73.1359 567.884H87.1714L87.1714 581.934H99.8034L99.8034 555.239H85.7678V541.189H59.1003L59.1003 553.834H73.1359V567.884ZM73.1359 569.289L73.1359 581.934H85.7678L85.7678 569.289H73.1359ZM87.1714 553.834H99.8034V541.189H87.1714V553.834ZM49.2755 618.464V605.819H36.6435V618.464H49.2755ZM35.24 605.819H21.2044L21.2044 591.769H8.57245L8.57245 618.464H22.608L22.608 632.514H49.2755L49.2755 619.869H35.24V605.819ZM35.24 604.414V591.769H22.608L22.608 604.414H35.24ZM21.2044 619.869H8.57245L8.57245 632.514H21.2044L21.2044 619.869ZM59.1003 619.869L59.1003 632.514H85.7678V618.464H99.8034V591.769H87.1714V605.819H73.1359V619.869H59.1003ZM71.7323 605.819H59.1003V618.464H71.7323V605.819ZM73.1359 604.414H85.7678V591.769H73.1359V604.414ZM87.1714 632.514V619.869H99.8034V632.514H87.1714ZM22.608 534.164H21.2044V539.784H7.1689L7.1689 553.834H1.55469L1.55469 555.239H7.1689L7.1689 583.339H36.6435V569.289H50.679L50.679 539.784H22.608V534.164ZM36.6435 567.884H49.2755V555.239H36.6435V567.884ZM49.2755 553.834H35.24V567.884H21.2044L21.2044 581.934H8.57245L8.57245 555.239H22.608L22.608 541.189H49.2755L49.2755 553.834ZM22.608 569.289H35.24V581.934H22.608L22.608 569.289ZM21.2044 541.189H8.57245L8.57245 553.834H21.2044L21.2044 541.189Z" fill="#D4AA54"/>
<path fill-rule="evenodd" clip-rule="evenodd" d="M108.17 746.593V747.998H1.5L1.5 746.593H21.1497V740.973H7.11421L7.11421 726.923H1.5L1.5 725.518H7.11421L7.11421 697.418H36.5888V711.468H50.6243L50.6243 740.973H22.5533V746.593H85.7132V740.973H57.6421L57.6421 711.468H71.6776V697.418H101.152V725.518H106.766L106.766 662.294H101.152L101.152 690.394H71.6776L71.6776 676.344H57.6421L57.6421 646.839H85.7132V641.219H87.1167V646.839H101.152V660.889H106.766V641.219H108.17L108.17 746.593ZM106.766 746.593V726.923H101.152V740.973H87.1167V746.593H106.766ZM59.0457 662.294V674.939H71.6776V662.294H59.0457ZM73.0812 674.939H87.1167L87.1167 688.989H99.7487L99.7487 662.294H85.7132V648.244H59.0457L59.0457 660.889H73.0812V674.939ZM73.0812 676.344L73.0812 688.989H85.7132L85.7132 676.344H73.0812ZM87.1167 660.889H99.7487V648.244H87.1167V660.889ZM49.2208 725.518V712.873H36.5888V725.518H49.2208ZM35.1853 712.873H21.1497L21.1497 698.823H8.51776L8.51776 725.518H22.5533L22.5533 739.568H49.2208L49.2208 726.923H35.1853V712.873ZM35.1853 711.468V698.823H22.5533L22.5533 711.468H35.1853ZM21.1497 726.923H8.51776L8.51776 739.568H21.1497L21.1497 726.923ZM59.0457 726.923L59.0457 739.568H85.7132V725.518H99.7487V698.823H87.1167V712.873H73.0812V726.923H59.0457ZM71.6776 712.873H59.0457V725.518H71.6776V712.873ZM73.0812 711.468H85.7132V698.823H73.0812V711.468ZM87.1167 739.568V726.923H99.7487V739.568H87.1167ZM22.5533 641.219H21.1497V646.839H7.11421L7.11421 660.889H1.5L1.5 662.294H7.11421L7.11421 690.394H36.5888V676.344H50.6243L50.6243 646.839H22.5533V641.219ZM36.5888 674.939H49.2208V662.294H36.5888V674.939ZM49.2208 660.889H35.1853V674.939H21.1497L21.1497 688.989H8.51776L8.51776 662.294H22.5533L22.5533 648.244H49.2208L49.2208 660.889ZM22.5533 676.344H35.1853V688.989H22.5533L22.5533 676.344ZM21.1497 648.244H8.51776L8.51776 660.889H21.1497L21.1497 648.244Z" fill="#D4AA54"/>
<path fill-rule="evenodd" clip-rule="evenodd" d="M108.115 853.648V855.053H1.44531L1.44531 853.648H21.095V848.028H7.05952L7.05952 833.979H1.44531L1.44531 832.574H7.05952L7.05952 804.474H36.5341V818.524H50.5697L50.5697 848.028H22.4986V853.648H85.6585V848.028H57.5874L57.5874 818.524H71.6229V804.474H101.098V832.574H106.712L106.712 769.349H101.098L101.098 797.449H71.6229L71.6229 783.399H57.5874L57.5874 753.894H85.6585V748.274H87.062V753.894H101.098V767.944H106.712V748.274H108.115L108.115 853.648ZM106.712 853.648V833.979H101.098V848.028H87.062V853.648H106.712ZM58.991 769.349V781.994H71.6229V769.349H58.991ZM73.0265 781.994H87.062L87.062 796.044H99.694L99.694 769.349H85.6585V755.299H58.991L58.991 767.944H73.0265V781.994ZM73.0265 783.399L73.0265 796.044H85.6585L85.6585 783.399H73.0265ZM87.062 767.944H99.694V755.299H87.062V767.944ZM49.1661 832.574V819.929H36.5341V832.574H49.1661ZM35.1306 819.929H21.095L21.095 805.879H8.46308L8.46308 832.574H22.4986L22.4986 846.623H49.1661L49.1661 833.979H35.1306V819.929ZM35.1306 818.524V805.879H22.4986L22.4986 818.524H35.1306ZM21.095 833.979H8.46308L8.46308 846.623H21.095L21.095 833.979ZM58.991 833.979L58.991 846.623H85.6585V832.574H99.694V805.879H87.062V819.929H73.0265V833.979H58.991ZM71.6229 819.929H58.991V832.574H71.6229V819.929ZM73.0265 818.524H85.6585V805.879H73.0265V818.524ZM87.062 846.623V833.979H99.694V846.623H87.062ZM22.4986 748.274H21.095V753.894H7.05952L7.05952 767.944H1.44531L1.44531 769.349H7.05952L7.05952 797.449H36.5341V783.399H50.5697L50.5697 753.894H22.4986V748.274ZM36.5341 781.994H49.1661V769.349H36.5341V781.994ZM49.1661 767.944H35.1306V781.994H21.095L21.095 796.044H8.46308L8.46308 769.349H22.4986L22.4986 755.299H49.1661L49.1661 767.944ZM22.4986 783.399H35.1306V796.044H22.4986L22.4986 783.399ZM21.095 755.299H8.46308L8.46308 767.944H21.095L21.095 755.299Z" fill="#D4AA54"/>
<path fill-rule="evenodd" clip-rule="evenodd" d="M108.061 960.703V962.108H1.39063L1.39063 960.703H21.0404V955.083H7.00484L7.00484 941.033H1.39063L1.39063 939.628H7.00484L7.00484 911.528H36.4794V925.578H50.515L50.515 955.083H22.4439V960.703H85.6038V955.083H57.5327L57.5327 925.578H71.5683V911.528H101.043V939.628H106.657L106.657 876.404H101.043L101.043 904.503H71.5683L71.5683 890.453H57.5327L57.5327 860.949H85.6038V855.329H87.0073V860.949H101.043V874.999H106.657V855.329H108.061L108.061 960.703ZM106.657 960.703V941.033H101.043V955.083H87.0073V960.703H106.657ZM58.9363 876.404V889.048H71.5683V876.404H58.9363ZM72.9718 889.048H87.0073L87.0073 903.098H99.6393L99.6393 876.404H85.6038V862.354H58.9363L58.9363 874.999H72.9718V889.048ZM72.9718 890.453L72.9718 903.098H85.6038L85.6038 890.453H72.9718ZM87.0073 874.999H99.6393V862.354H87.0073V874.999ZM49.1114 939.628V926.983H36.4794V939.628H49.1114ZM35.0759 926.983H21.0404L21.0404 912.933H8.40839L8.40839 939.628H22.4439L22.4439 953.678H49.1114L49.1114 941.033H35.0759V926.983ZM35.0759 925.578V912.933H22.4439L22.4439 925.578H35.0759ZM21.0404 941.033H8.40839L8.40839 953.678H21.0404L21.0404 941.033ZM58.9363 941.033L58.9363 953.678H85.6038V939.628H99.6393V912.933H87.0073V926.983H72.9718V941.033H58.9363ZM71.5683 926.983H58.9363V939.628H71.5683V926.983ZM72.9718 925.578H85.6038V912.933H72.9718V925.578ZM87.0073 953.678V941.033H99.6393V953.678H87.0073ZM22.4439 855.329H21.0404V860.949H7.00484L7.00484 874.999H1.39063L1.39063 876.404H7.00484L7.00484 904.503H36.4794V890.453H50.515L50.515 860.949H22.4439V855.329ZM36.4794 889.048H49.1114V876.404H36.4794V889.048ZM49.1114 874.999H35.0759V889.048H21.0404L21.0404 903.098H8.40839L8.40839 876.404H22.4439L22.4439 862.354H49.1114L49.1114 874.999ZM22.4439 890.453H35.0759V903.098H22.4439L22.4439 890.453ZM21.0404 862.354H8.40839L8.40839 874.999H21.0404L21.0404 862.354Z" fill="#D4AA54"/>
<path fill-rule="evenodd" clip-rule="evenodd" d="M108.006 1067.76V1069.16H1.33594L1.33594 1067.76H20.9857V1062.14H6.95015L6.95015 1048.09H1.33594L1.33594 1046.68H6.95015L6.95015 1018.58H36.4248V1032.63H50.4603L50.4603 1062.14H22.3892V1067.76H85.5491V1062.14H57.478L57.478 1032.63H71.5136V1018.58H100.988V1046.68H106.602L106.602 983.458H100.988L100.988 1011.56H71.5136L71.5136 997.508H57.478L57.478 968.003H85.5491V962.383H86.9527V968.003H100.988V982.053H106.602V962.383H108.006L108.006 1067.76ZM106.602 1067.76V1048.09H100.988V1062.14H86.9527V1067.76H106.602ZM58.8816 983.458V996.103H71.5136V983.458H58.8816ZM72.9171 996.103H86.9527L86.9527 1010.15H99.5846L99.5846 983.458H85.5491V969.408H58.8816L58.8816 982.053H72.9171V996.103ZM72.9171 997.508L72.9171 1010.15H85.5491L85.5491 997.508H72.9171ZM86.9527 982.053H99.5846V969.408H86.9527V982.053ZM49.0567 1046.68V1034.04H36.4248V1046.68H49.0567ZM35.0212 1034.04H20.9857L20.9857 1019.99H8.3537L8.3537 1046.68H22.3892L22.3892 1060.73H49.0567L49.0567 1048.09H35.0212V1034.04ZM35.0212 1032.63V1019.99H22.3892L22.3892 1032.63H35.0212ZM20.9857 1048.09H8.3537L8.3537 1060.73H20.9857L20.9857 1048.09ZM58.8816 1048.09L58.8816 1060.73H85.5491V1046.68H99.5846V1019.99H86.9527V1034.04H72.9171V1048.09H58.8816ZM71.5136 1034.04H58.8816V1046.68H71.5136V1034.04ZM72.9171 1032.63H85.5491V1019.99H72.9171V1032.63ZM86.9527 1060.73V1048.09H99.5846V1060.73H86.9527ZM22.3892 962.383H20.9857V968.003H6.95015L6.95015 982.053H1.33594L1.33594 983.458H6.95015L6.95015 1011.56H36.4248V997.508H50.4603L50.4603 968.003H22.3892V962.383ZM36.4248 996.103H49.0567V983.458H36.4248V996.103ZM49.0567 982.053H35.0212V996.103H20.9857L20.9857 1010.15H8.3537L8.3537 983.458H22.3892L22.3892 969.408H49.0567L49.0567 982.053ZM22.3892 997.508H35.0212V1010.15H22.3892L22.3892 997.508ZM20.9857 969.408H8.3537L8.3537 982.053H20.9857L20.9857 969.408Z" fill="#D4AA54"/>
<path d="M1.33298 -3L1.33298 1069" stroke="#D4AA54" stroke-width="1.5"/>
</svg>
